<svg width="152" height="32" viewBox="0 0 152 32" fill="none" xmlns="http://www.w3.org/2000/svg">
<path d="M4.24998 13.5998C8.44071 13.8931 12.4643 15.3695 15.8519 17.8601L16 17.969L16.1481 17.8601C19.5357 15.3695 23.5592 13.8931 27.75 13.5998V17.28V17.5295L27.9995 17.53C28.6416 17.5313 29.257 17.7875 29.7103 18.2424C30.1635 18.6972 30.4176 19.3135 30.4166 19.9556V19.956V21.2947V21.295C30.4176 21.9372 30.1635 22.5534 29.7103 23.0083C29.257 23.4631 28.6416 23.7194 27.9995 23.7207L27.75 23.7212V23.9707V26.6816C24.2477 26.9481 20.875 28.129 17.9699 30.108L17.9682 30.1092C17.2806 30.5859 16.6233 31.1048 16 31.6628C15.3767 31.1048 14.7194 30.5859 14.0318 30.1092L14.0301 30.108C11.1249 28.129 7.7523 26.9481 4.24998 26.6816V24.2387V24.0908L4.12044 24.0196L4.24998 13.5998ZM4.24998 13.5998V17.28V17.5295L4.00048 17.53C3.35834 17.5313 2.74298 17.7875 2.28971 18.2424C1.83644 18.6972 1.58235 19.3135 1.58332 19.9556L1.58332 19.956L1.58332 21.2947C1.58332 21.5902 1.7178 21.9077 1.95248 22.2319C2.18543 22.5536 2.50138 22.8601 2.82595 23.1285C3.14931 23.3958 3.47392 23.6193 3.71837 23.7762C3.84034 23.8545 3.94176 23.9159 4.01229 23.9574C4.04755 23.9782 4.07505 23.994 4.0935 24.0045L4.11422 24.0161L4.11918 24.0189L4.12026 24.0195L4.12038 24.0196L4.24998 13.5998ZM30.6666 21.2947V19.956C30.6677 19.2476 30.3874 18.5677 29.8873 18.0659C29.3873 17.5641 28.7084 17.2814 28 17.28L30.6666 21.2947ZM15.8522 28.7643L16 28.8726L16.1478 28.7643C18.8823 26.7602 22.0395 25.4089 25.3772 24.8141L25.5833 24.7774V24.568V16.3667V16.0612L25.2839 16.1216C22.6643 16.6497 20.1772 17.6979 17.9697 19.2041L17.9682 19.2052C17.2806 19.6819 16.6233 20.2008 16 20.7588C15.3767 20.2008 14.7194 19.6819 14.0318 19.2052L14.0302 19.2041C11.8227 17.6984 9.33556 16.6506 6.71602 16.1229L6.41665 16.0626V16.368V24.568V24.7774L6.62279 24.8141C9.96049 25.4089 13.1177 26.7602 15.8522 28.7643ZM14.9166 10.9167H17.0833V11.75H14.9166V10.9167ZM14.9166 5.58333H17.0833V6.41666H14.9166V5.58333Z" fill="#2C6DA4" stroke="#2C3E50" stroke-width="0.5"/>
<path d="M12 6.66667L12.0013 6.41668C12.0011 6.41667 12.0009 6.41667 12.0006 6.41667C12.0004 6.41667 12.0002 6.41667 12 6.41667V6.66667ZM14.9167 13.5833H17.0833V14.4167H14.9167V13.5833Z" fill="#2C6DA4" stroke="#2C3E50" stroke-width="0.5"/>
<path d="M21.0834 5.33333C21.0834 5.93164 20.5983 6.41667 20 6.41667C19.4017 6.41667 18.9167 5.93164 18.9167 5.33333C18.9167 4.73502 19.4017 4.25 20 4.25C20.5983 4.25 21.0834 4.73502 21.0834 5.33333Z" fill="#2C6DA4" stroke="#2C3E50" stroke-width="0.5"/>
<path d="M21.3331 10.4167H10.6669C9.67261 10.4157 8.7193 10.0202 8.01621 9.31715C7.31314 8.61408 6.91771 7.66082 6.91669 6.66653V4.00013C6.91771 3.00585 7.31314 2.05258 8.01621 1.34952C8.71927 0.646454 9.67254 0.251024 10.6668 0.25H21.3332C22.3275 0.251024 23.2808 0.646454 23.9838 1.34952C24.6869 2.05261 25.0824 3.00593 25.0834 4.00025V6.66642C25.0824 7.66074 24.6869 8.61405 23.9838 9.31715C23.2807 10.0202 22.3274 10.4157 21.3331 10.4167ZM10.6667 2.41667C10.2468 2.41667 9.84403 2.58348 9.5471 2.88041C9.25017 3.17735 9.08335 3.58007 9.08335 4V6.66667C9.08335 7.08659 9.25017 7.48932 9.5471 7.78625C9.84403 8.08318 10.2468 8.25 10.6667 8.25H21.3334C21.7533 8.25 22.156 8.08318 22.4529 7.78625C22.7499 7.48932 22.9167 7.08659 22.9167 6.66667V4C22.9167 3.58007 22.7499 3.17735 22.4529 2.88041C22.156 2.58348 21.7533 2.41667 21.3334 2.41667H10.6667Z" fill="#2C6DA4" stroke="#2C3E50" stroke-width="0.5"/>
<path d="M52.875 21.4688V24H44.2969V21.4688H52.875ZM45.2695 6.9375V24H42.0469V6.9375H45.2695ZM60.4922 24.2344C59.5312 24.2344 58.668 24.0781 57.9023 23.7656C57.1367 23.4531 56.4844 23.0195 55.9453 22.4648C55.4141 21.9023 55.0039 21.25 54.7148 20.5078C54.4336 19.7578 54.293 18.9531 54.293 18.0938V17.625C54.293 16.6484 54.4336 15.7617 54.7148 14.9648C54.9961 14.1602 55.3945 13.4688 55.9102 12.8906C56.4258 12.3125 57.043 11.8672 57.7617 11.5547C58.4805 11.2422 59.2734 11.0859 60.1406 11.0859C61.0391 11.0859 61.832 11.2383 62.5195 11.543C63.207 11.8398 63.7812 12.2617 64.2422 12.8086C64.7031 13.3555 65.0508 14.0117 65.2852 14.7773C65.5195 15.5352 65.6367 16.375 65.6367 17.2969V18.5977H55.6992V16.4648H62.5898V16.2305C62.5742 15.7383 62.4805 15.2891 62.3086 14.8828C62.1367 14.4688 61.8711 14.1406 61.5117 13.8984C61.1523 13.6484 60.6875 13.5234 60.1172 13.5234C59.6562 13.5234 59.2539 13.625 58.9102 13.8281C58.5742 14.0234 58.293 14.3047 58.0664 14.6719C57.8477 15.0312 57.6836 15.4609 57.5742 15.9609C57.4648 16.4609 57.4102 17.0156 57.4102 17.625V18.0938C57.4102 18.625 57.4805 19.1172 57.6211 19.5703C57.7695 20.0234 57.9844 20.418 58.2656 20.7539C58.5547 21.082 58.8984 21.3398 59.2969 21.5273C59.7031 21.707 60.1641 21.7969 60.6797 21.7969C61.3281 21.7969 61.9141 21.6719 62.4375 21.4219C62.9688 21.1641 63.4297 20.7852 63.8203 20.2852L65.3789 21.9023C65.1133 22.293 64.7539 22.668 64.3008 23.0273C63.8555 23.3867 63.3164 23.6797 62.6836 23.9062C62.0508 24.125 61.3203 24.2344 60.4922 24.2344ZM74.6953 21.3047V15.457C74.6953 15.0273 74.6211 14.6562 74.4727 14.3438C74.3242 14.0312 74.0977 13.7891 73.793 13.6172C73.4883 13.4453 73.1016 13.3594 72.6328 13.3594C72.2188 13.3594 71.8555 13.4297 71.543 13.5703C71.2383 13.7109 71.0039 13.9102 70.8398 14.168C70.6758 14.418 70.5938 14.707 70.5938 15.0352H67.4883C67.4883 14.5117 67.6133 14.0156 67.8633 13.5469C68.1133 13.0703 68.4688 12.6484 68.9297 12.2812C69.3984 11.9062 69.957 11.6133 70.6055 11.4023C71.2617 11.1914 71.9961 11.0859 72.8086 11.0859C73.7695 11.0859 74.625 11.25 75.375 11.5781C76.1328 11.8984 76.7266 12.3828 77.1562 13.0312C77.5938 13.6797 77.8125 14.4961 77.8125 15.4805V21.0117C77.8125 21.6445 77.8516 22.1875 77.9297 22.6406C78.0156 23.0859 78.1406 23.4727 78.3047 23.8008V24H75.1523C75.0039 23.6797 74.8906 23.2734 74.8125 22.7812C74.7344 22.2812 74.6953 21.7891 74.6953 21.3047ZM75.1289 16.2773L75.1523 18.1172H73.1953C72.7109 18.1172 72.2852 18.168 71.918 18.2695C71.5508 18.3633 71.25 18.5039 71.0156 18.6914C70.7812 18.8711 70.6055 19.0898 70.4883 19.3477C70.3711 19.5977 70.3125 19.8828 70.3125 20.2031C70.3125 20.5156 70.3828 20.7969 70.5234 21.0469C70.6719 21.2969 70.8828 21.4961 71.1562 21.6445C71.4375 21.7852 71.7656 21.8555 72.1406 21.8555C72.6875 21.8555 73.1641 21.7461 73.5703 21.5273C73.9766 21.3008 74.293 21.0273 74.5195 20.707C74.7461 20.3867 74.8672 20.082 74.8828 19.793L75.7734 21.1289C75.6641 21.4492 75.5 21.7891 75.2812 22.1484C75.0625 22.5078 74.7812 22.8438 74.4375 23.1562C74.0938 23.4688 73.6797 23.7266 73.1953 23.9297C72.7109 24.1328 72.1484 24.2344 71.5078 24.2344C70.6875 24.2344 69.9531 24.0703 69.3047 23.7422C68.6562 23.4141 68.1445 22.9648 67.7695 22.3945C67.3945 21.8242 67.207 21.1758 67.207 20.4492C67.207 19.7773 67.332 19.1836 67.582 18.668C67.832 18.1523 68.2031 17.7188 68.6953 17.3672C69.1875 17.0078 69.7969 16.7383 70.5234 16.5586C71.2578 16.3711 72.0977 16.2773 73.043 16.2773H75.1289ZM83.6953 13.9102V24H80.6016V11.3203H83.5312L83.6953 13.9102ZM87.5508 11.2383L87.5039 14.1211C87.332 14.0898 87.1367 14.0664 86.918 14.0508C86.707 14.0352 86.5078 14.0273 86.3203 14.0273C85.8438 14.0273 85.4258 14.0938 85.0664 14.2266C84.707 14.3516 84.4062 14.5352 84.1641 14.7773C83.9297 15.0195 83.75 15.3164 83.625 15.668C83.5 16.0117 83.4297 16.4023 83.4141 16.8398L82.7461 16.7578C82.7461 15.9531 82.8281 15.207 82.9922 14.5195C83.1562 13.832 83.3945 13.2305 83.707 12.7148C84.0195 12.1992 84.4102 11.8008 84.8789 11.5195C85.3555 11.2305 85.9023 11.0859 86.5195 11.0859C86.6914 11.0859 86.875 11.1016 87.0703 11.1328C87.2734 11.1562 87.4336 11.1914 87.5508 11.2383ZM92.2852 14.0273V24H89.1914V11.3203H92.0977L92.2852 14.0273ZM91.793 17.2031H90.8789C90.8867 16.2812 91.0117 15.4453 91.2539 14.6953C91.4961 13.9453 91.8359 13.3008 92.2734 12.7617C92.7188 12.2227 93.2461 11.8086 93.8555 11.5195C94.4648 11.2305 95.1445 11.0859 95.8945 11.0859C96.5039 11.0859 97.0547 11.1719 97.5469 11.3438C98.0391 11.5156 98.4609 11.7891 98.8125 12.1641C99.1719 12.5391 99.4453 13.0312 99.6328 13.6406C99.8281 14.2422 99.9258 14.9844 99.9258 15.8672V24H96.8086V15.8438C96.8086 15.2656 96.7227 14.8086 96.5508 14.4727C96.3867 14.1367 96.1445 13.8984 95.8242 13.7578C95.5117 13.6172 95.125 13.5469 94.6641 13.5469C94.1875 13.5469 93.7695 13.6445 93.4102 13.8398C93.0586 14.0273 92.7617 14.2891 92.5195 14.625C92.2852 14.9609 92.1055 15.3477 91.9805 15.7852C91.8555 16.2227 91.793 16.6953 91.793 17.2031ZM116.602 6.9375V24H113.367L106.113 12.1641V24H102.891V6.9375H106.113L113.391 18.7852V6.9375H116.602ZM125.344 24.2344C124.383 24.2344 123.52 24.0781 122.754 23.7656C121.988 23.4531 121.336 23.0195 120.797 22.4648C120.266 21.9023 119.855 21.25 119.566 20.5078C119.285 19.7578 119.145 18.9531 119.145 18.0938V17.625C119.145 16.6484 119.285 15.7617 119.566 14.9648C119.848 14.1602 120.246 13.4688 120.762 12.8906C121.277 12.3125 121.895 11.8672 122.613 11.5547C123.332 11.2422 124.125 11.0859 124.992 11.0859C125.891 11.0859 126.684 11.2383 127.371 11.543C128.059 11.8398 128.633 12.2617 129.094 12.8086C129.555 13.3555 129.902 14.0117 130.137 14.7773C130.371 15.5352 130.488 16.375 130.488 17.2969V18.5977H120.551V16.4648H127.441V16.2305C127.426 15.7383 127.332 15.2891 127.16 14.8828C126.988 14.4688 126.723 14.1406 126.363 13.8984C126.004 13.6484 125.539 13.5234 124.969 13.5234C124.508 13.5234 124.105 13.625 123.762 13.8281C123.426 14.0234 123.145 14.3047 122.918 14.6719C122.699 15.0312 122.535 15.4609 122.426 15.9609C122.316 16.4609 122.262 17.0156 122.262 17.625V18.0938C122.262 18.625 122.332 19.1172 122.473 19.5703C122.621 20.0234 122.836 20.418 123.117 20.7539C123.406 21.082 123.75 21.3398 124.148 21.5273C124.555 21.707 125.016 21.7969 125.531 21.7969C126.18 21.7969 126.766 21.6719 127.289 21.4219C127.82 21.1641 128.281 20.7852 128.672 20.2852L130.23 21.9023C129.965 22.293 129.605 22.668 129.152 23.0273C128.707 23.3867 128.168 23.6797 127.535 23.9062C126.902 24.125 126.172 24.2344 125.344 24.2344ZM139.535 20.5312C139.535 20.2656 139.465 20.0273 139.324 19.8164C139.184 19.6055 138.918 19.4141 138.527 19.2422C138.145 19.0625 137.582 18.8945 136.84 18.7383C136.184 18.5977 135.578 18.4219 135.023 18.2109C134.469 18 133.992 17.7461 133.594 17.4492C133.195 17.1445 132.883 16.7891 132.656 16.3828C132.438 15.9688 132.328 15.4922 132.328 14.9531C132.328 14.4297 132.441 13.9375 132.668 13.4766C132.895 13.0078 133.223 12.5977 133.652 12.2461C134.082 11.8867 134.605 11.6055 135.223 11.4023C135.84 11.1914 136.535 11.0859 137.309 11.0859C138.387 11.0859 139.312 11.2617 140.086 11.6133C140.867 11.9648 141.465 12.4492 141.879 13.0664C142.293 13.6758 142.5 14.3633 142.5 15.1289H139.406C139.406 14.793 139.328 14.4883 139.172 14.2148C139.023 13.9414 138.793 13.7227 138.48 13.5586C138.168 13.3867 137.773 13.3008 137.297 13.3008C136.867 13.3008 136.504 13.3711 136.207 13.5117C135.918 13.6523 135.699 13.8359 135.551 14.0625C135.402 14.2891 135.328 14.5391 135.328 14.8125C135.328 15.0156 135.367 15.1992 135.445 15.3633C135.531 15.5195 135.668 15.6641 135.855 15.7969C136.043 15.9297 136.297 16.0508 136.617 16.1602C136.945 16.2695 137.348 16.375 137.824 16.4766C138.77 16.6641 139.594 16.9141 140.297 17.2266C141.008 17.5312 141.562 17.9375 141.961 18.4453C142.359 18.9531 142.559 19.6016 142.559 20.3906C142.559 20.9531 142.438 21.4688 142.195 21.9375C141.953 22.3984 141.602 22.8008 141.141 23.1445C140.68 23.4883 140.129 23.7578 139.488 23.9531C138.848 24.1406 138.125 24.2344 137.32 24.2344C136.156 24.2344 135.172 24.0273 134.367 23.6133C133.562 23.1914 132.953 22.6602 132.539 22.0195C132.125 21.3711 131.918 20.6992 131.918 20.0039H134.883C134.906 20.4961 135.039 20.8906 135.281 21.1875C135.523 21.4844 135.828 21.6992 136.195 21.832C136.57 21.957 136.965 22.0195 137.379 22.0195C137.848 22.0195 138.242 21.957 138.562 21.832C138.883 21.6992 139.125 21.5234 139.289 21.3047C139.453 21.0781 139.535 20.8203 139.535 20.5312ZM150.914 11.3203V13.5469H143.648V11.3203H150.914ZM145.594 8.20312H148.699V20.3438C148.699 20.7188 148.75 21.0078 148.852 21.2109C148.953 21.4141 149.105 21.5508 149.309 21.6211C149.512 21.6914 149.754 21.7266 150.035 21.7266C150.238 21.7266 150.426 21.7148 150.598 21.6914C150.77 21.668 150.914 21.6445 151.031 21.6211L151.043 23.9414C150.785 24.0273 150.492 24.0977 150.164 24.1523C149.844 24.207 149.48 24.2344 149.074 24.2344C148.379 24.2344 147.77 24.1172 147.246 23.8828C146.723 23.6406 146.316 23.2539 146.027 22.7227C145.738 22.1836 145.594 21.4727 145.594 20.5898V8.20312Z" fill="#2C6DA4"/>
</svg>
