<svg width="24" height="24" viewBox="0 0 24 24" fill="none" xmlns="http://www.w3.org/2000/svg">
<path d="M20.0005 11C20.0005 12.78 19.4726 14.5201 18.4837 16.0001C17.4948 17.4802 16.0892 18.6337 14.4446 19.3149C12.8001 19.9961 10.9905 20.1743 9.24468 19.8271C7.49885 19.4798 5.8952 18.6226 4.63653 17.364C3.37786 16.1053 2.52069 14.5016 2.17342 12.7558C1.82616 11.01 2.00439 9.20038 2.68558 7.55585C3.36676 5.91131 4.52032 4.50571 6.00036 3.51677C7.4804 2.52784 9.22046 2 11.0005 2C13.3874 2 15.6766 2.94821 17.3645 4.63604C19.0523 6.32387 20.0005 8.61305 20.0005 11Z" stroke="#757575" stroke-width="1.5" stroke-linecap="round" stroke-linejoin="round"/>
<path d="M22.9986 22.9991L18.999 18.9995" stroke="#757575" stroke-width="1.5" stroke-linecap="round" stroke-linejoin="round"/>
</svg>
