<svg width="41" height="41" viewBox="0 0 41 41" fill="none" xmlns="http://www.w3.org/2000/svg">
<g id="eos-icons:machine-learning-outlined" clip-path="url(#clip0_990_838)">
<g id="Vector">
<path d="M38.8333 27.1184V25.445C38.8346 24.5595 38.4842 23.7097 37.8592 23.0824C37.2341 22.4551 36.3855 22.1018 35.5 22.1L38.8333 27.1184ZM5.74996 17.4329C11.0242 17.7892 16.0898 19.6413 20.3519 22.7748L20.5 22.8836L20.648 22.7748C24.9101 19.6413 29.9757 17.7892 35.25 17.4329V22.1V22.3495L35.4995 22.35C36.3187 22.3517 37.1038 22.6786 37.6821 23.2589C38.2604 23.8392 38.5845 24.6254 38.5833 25.4446V25.445V27.1184V27.1187C38.5845 27.938 38.2604 28.7242 37.6821 29.3045C37.1038 29.8848 36.3187 30.2117 35.4995 30.2134L35.25 30.2139V30.4634V33.91C30.8623 34.2337 26.6359 35.7082 22.9975 38.1867L22.9959 38.1879C22.1231 38.793 21.2895 39.4525 20.5 40.1624C19.7104 39.4525 18.8768 38.793 18.0041 38.1879L18.0024 38.1867C14.3641 35.7082 10.1376 34.2337 5.74996 33.91V30.7984V30.6505L5.62041 30.5793L5.62039 30.5793L5.62036 30.5793L5.62012 30.5791L5.61868 30.5783L5.61229 30.5748L5.586 30.5599C5.56266 30.5467 5.528 30.5268 5.48363 30.5006C5.39486 30.4483 5.2674 30.3713 5.11418 30.2729C4.80724 30.0759 4.39929 29.795 3.99259 29.4588C3.58469 29.1216 3.18541 28.7346 2.88996 28.3265C2.59278 27.916 2.41663 27.5063 2.41663 27.1184L2.41663 25.445L2.41663 25.4446C2.4154 24.6254 2.73957 23.8392 3.31785 23.2589C3.89614 22.6786 4.68121 22.3517 5.50046 22.35L5.74996 22.3495V22.1V17.4329ZM20.3522 36.405L20.5 36.5133L20.6477 36.405C24.0736 33.8942 28.029 32.2013 32.2105 31.4561L32.4166 31.4194V31.21V20.9584V20.6529L32.1172 20.7133C28.8509 21.3718 25.7498 22.6788 22.9974 24.5568L22.9959 24.5579C22.1231 25.163 21.2895 25.8225 20.5 26.5324C19.7104 25.8225 18.8768 25.163 18.0041 24.5579L18.0025 24.5568C15.25 22.6793 12.1489 21.3729 8.88267 20.7149L8.5833 20.6546V20.96V31.21V31.4194L8.78943 31.4561C12.971 32.2013 16.9263 33.8942 20.3522 36.405ZM19.0833 14.0834H21.9166V15.25H19.0833V14.0834ZM19.0833 7.41669H21.9166V8.58335H19.0833V7.41669Z" fill="#1F507A"/>
<path d="M38.8333 27.1184V25.445C38.8346 24.5595 38.4842 23.7097 37.8592 23.0824C37.2341 22.4551 36.3855 22.1018 35.5 22.1L38.8333 27.1184ZM5.74996 17.4329C11.0242 17.7892 16.0898 19.6413 20.3519 22.7748L20.5 22.8836L20.648 22.7748C24.9101 19.6413 29.9757 17.7892 35.25 17.4329V22.1V22.3495L35.4995 22.35C36.3187 22.3517 37.1038 22.6786 37.6821 23.2589C38.2604 23.8392 38.5845 24.6254 38.5833 25.4446V25.445V27.1184V27.1187C38.5845 27.938 38.2604 28.7242 37.6821 29.3045C37.1038 29.8848 36.3187 30.2117 35.4995 30.2134L35.25 30.2139V30.4634V33.91C30.8623 34.2337 26.6359 35.7082 22.9975 38.1867L22.9959 38.1879C22.1231 38.793 21.2895 39.4525 20.5 40.1624C19.7104 39.4525 18.8768 38.793 18.0041 38.1879L18.0024 38.1867C14.3641 35.7082 10.1376 34.2337 5.74996 33.91V30.7984V30.6505L5.62041 30.5793L5.62039 30.5793L5.62036 30.5793L5.62012 30.5791L5.61868 30.5783L5.61229 30.5748L5.586 30.5599C5.56266 30.5467 5.528 30.5268 5.48363 30.5006C5.39486 30.4483 5.2674 30.3713 5.11418 30.2729C4.80724 30.0759 4.39929 29.795 3.99259 29.4588C3.58469 29.1216 3.18541 28.7346 2.88996 28.3265C2.59278 27.916 2.41663 27.5063 2.41663 27.1184L2.41663 25.445L2.41663 25.4446C2.4154 24.6254 2.73957 23.8392 3.31785 23.2589C3.89614 22.6786 4.68121 22.3517 5.50046 22.35L5.74996 22.3495V22.1V17.4329ZM20.3522 36.405L20.5 36.5133L20.6477 36.405C24.0736 33.8942 28.029 32.2013 32.2105 31.4561L32.4166 31.4194V31.21V20.9584V20.6529L32.1172 20.7133C28.8509 21.3718 25.7498 22.6788 22.9974 24.5568L22.9959 24.5579C22.1231 25.163 21.2895 25.8225 20.5 26.5324C19.7104 25.8225 18.8768 25.163 18.0041 24.5579L18.0025 24.5568C15.25 22.6793 12.1489 21.3729 8.88267 20.7149L8.5833 20.6546V20.96V31.21V31.4194L8.78943 31.4561C12.971 32.2013 16.9263 33.8942 20.3522 36.405ZM19.0833 14.0834H21.9166V15.25H19.0833V14.0834ZM19.0833 7.41669H21.9166V8.58335H19.0833V7.41669Z" fill="black" fill-opacity="0.2"/>
<path d="M38.8333 27.1184V25.445C38.8346 24.5595 38.4842 23.7097 37.8592 23.0824C37.2341 22.4551 36.3855 22.1018 35.5 22.1L38.8333 27.1184ZM5.74996 17.4329C11.0242 17.7892 16.0898 19.6413 20.3519 22.7748L20.5 22.8836L20.648 22.7748C24.9101 19.6413 29.9757 17.7892 35.25 17.4329V22.1V22.3495L35.4995 22.35C36.3187 22.3517 37.1038 22.6786 37.6821 23.2589C38.2604 23.8392 38.5845 24.6254 38.5833 25.4446V25.445V27.1184V27.1187C38.5845 27.938 38.2604 28.7242 37.6821 29.3045C37.1038 29.8848 36.3187 30.2117 35.4995 30.2134L35.25 30.2139V30.4634V33.91C30.8623 34.2337 26.6359 35.7082 22.9975 38.1867L22.9959 38.1879C22.1231 38.793 21.2895 39.4525 20.5 40.1624C19.7104 39.4525 18.8768 38.793 18.0041 38.1879L18.0024 38.1867C14.3641 35.7082 10.1376 34.2337 5.74996 33.91V30.7984V30.6505L5.62041 30.5793L5.62039 30.5793L5.62036 30.5793L5.62012 30.5791L5.61868 30.5783L5.61229 30.5748L5.586 30.5599C5.56266 30.5467 5.528 30.5268 5.48363 30.5006C5.39486 30.4483 5.2674 30.3713 5.11418 30.2729C4.80724 30.0759 4.39929 29.795 3.99259 29.4588C3.58469 29.1216 3.18541 28.7346 2.88996 28.3265C2.59278 27.916 2.41663 27.5063 2.41663 27.1184L2.41663 25.445L2.41663 25.4446C2.4154 24.6254 2.73957 23.8392 3.31785 23.2589C3.89614 22.6786 4.68121 22.3517 5.50046 22.35L5.74996 22.3495V22.1V17.4329ZM20.3522 36.405L20.5 36.5133L20.6477 36.405C24.0736 33.8942 28.029 32.2013 32.2105 31.4561L32.4166 31.4194V31.21V20.9584V20.6529L32.1172 20.7133C28.8509 21.3718 25.7498 22.6788 22.9974 24.5568L22.9959 24.5579C22.1231 25.163 21.2895 25.8225 20.5 26.5324C19.7104 25.8225 18.8768 25.163 18.0041 24.5579L18.0025 24.5568C15.25 22.6793 12.1489 21.3729 8.88267 20.7149L8.5833 20.6546V20.96V31.21V31.4194L8.78943 31.4561C12.971 32.2013 16.9263 33.8942 20.3522 36.405ZM19.0833 14.0834H21.9166V15.25H19.0833V14.0834ZM19.0833 7.41669H21.9166V8.58335H19.0833V7.41669Z" stroke="#1F507A" stroke-width="0.5"/>
<path d="M38.8333 27.1184V25.445C38.8346 24.5595 38.4842 23.7097 37.8592 23.0824C37.2341 22.4551 36.3855 22.1018 35.5 22.1L38.8333 27.1184ZM5.74996 17.4329C11.0242 17.7892 16.0898 19.6413 20.3519 22.7748L20.5 22.8836L20.648 22.7748C24.9101 19.6413 29.9757 17.7892 35.25 17.4329V22.1V22.3495L35.4995 22.35C36.3187 22.3517 37.1038 22.6786 37.6821 23.2589C38.2604 23.8392 38.5845 24.6254 38.5833 25.4446V25.445V27.1184V27.1187C38.5845 27.938 38.2604 28.7242 37.6821 29.3045C37.1038 29.8848 36.3187 30.2117 35.4995 30.2134L35.25 30.2139V30.4634V33.91C30.8623 34.2337 26.6359 35.7082 22.9975 38.1867L22.9959 38.1879C22.1231 38.793 21.2895 39.4525 20.5 40.1624C19.7104 39.4525 18.8768 38.793 18.0041 38.1879L18.0024 38.1867C14.3641 35.7082 10.1376 34.2337 5.74996 33.91V30.7984V30.6505L5.62041 30.5793L5.62039 30.5793L5.62036 30.5793L5.62012 30.5791L5.61868 30.5783L5.61229 30.5748L5.586 30.5599C5.56266 30.5467 5.528 30.5268 5.48363 30.5006C5.39486 30.4483 5.2674 30.3713 5.11418 30.2729C4.80724 30.0759 4.39929 29.795 3.99259 29.4588C3.58469 29.1216 3.18541 28.7346 2.88996 28.3265C2.59278 27.916 2.41663 27.5063 2.41663 27.1184L2.41663 25.445L2.41663 25.4446C2.4154 24.6254 2.73957 23.8392 3.31785 23.2589C3.89614 22.6786 4.68121 22.3517 5.50046 22.35L5.74996 22.3495V22.1V17.4329ZM20.3522 36.405L20.5 36.5133L20.6477 36.405C24.0736 33.8942 28.029 32.2013 32.2105 31.4561L32.4166 31.4194V31.21V20.9584V20.6529L32.1172 20.7133C28.8509 21.3718 25.7498 22.6788 22.9974 24.5568L22.9959 24.5579C22.1231 25.163 21.2895 25.8225 20.5 26.5324C19.7104 25.8225 18.8768 25.163 18.0041 24.5579L18.0025 24.5568C15.25 22.6793 12.1489 21.3729 8.88267 20.7149L8.5833 20.6546V20.96V31.21V31.4194L8.78943 31.4561C12.971 32.2013 16.9263 33.8942 20.3522 36.405ZM19.0833 14.0834H21.9166V15.25H19.0833V14.0834ZM19.0833 7.41669H21.9166V8.58335H19.0833V7.41669Z" stroke="black" stroke-opacity="0.2" stroke-width="0.5"/>
</g>
<g id="Vector_2">
<path d="M15.5 8.83331C15.942 8.83331 16.3659 8.65772 16.6785 8.34515C16.9911 8.03259 17.1667 7.60867 17.1667 7.16664C17.1682 6.94953 17.1266 6.73427 17.0442 6.53338C16.9619 6.3325 16.8404 6.14999 16.6868 5.99646C16.5333 5.84293 16.3508 5.72145 16.1499 5.63908C15.949 5.55671 15.7338 5.51509 15.5167 5.51664C15.2989 5.51555 15.083 5.55736 14.8814 5.63969C14.6798 5.72202 14.4964 5.84325 14.3416 5.99647C14.029 6.3059 13.8522 6.72683 13.85 7.16664C13.8478 7.60646 14.0204 8.02914 14.3298 8.3417C14.6393 8.65426 15.0602 8.8311 15.5 8.83331ZM15.5 8.83331L15.5013 8.58331C15.501 8.58331 15.5008 8.58331 15.5006 8.58331M15.5 8.83331V8.58331C15.5002 8.58331 15.5004 8.58331 15.5006 8.58331M15.5006 8.58331C15.8761 8.58314 16.2362 8.4339 16.5017 8.16838C16.7674 7.9027 16.9167 7.54237 16.9167 7.16664V7.16486L16.9167 7.16486C16.918 6.98087 16.8827 6.79846 16.8129 6.62823C16.7431 6.458 16.6402 6.30333 16.5101 6.17324C16.38 6.04314 16.2253 5.94019 16.0551 5.87039C15.8848 5.80059 15.7024 5.76532 15.5184 5.76664L15.5154 5.76666C15.3305 5.76571 15.1471 5.80122 14.9759 5.87114C14.8047 5.94105 14.6489 6.04401 14.5175 6.17413C14.252 6.43692 14.1019 6.79439 14.1 7.1679C14.0981 7.54141 14.2447 7.90038 14.5075 8.16582C14.7701 8.43111 15.1273 8.58127 15.5006 8.58331ZM19.0833 17.4166H21.9167V18.5833H19.0833V17.4166Z" fill="#1F507A"/>
<path d="M15.5 8.83331C15.942 8.83331 16.3659 8.65772 16.6785 8.34515C16.9911 8.03259 17.1667 7.60867 17.1667 7.16664C17.1682 6.94953 17.1266 6.73427 17.0442 6.53338C16.9619 6.3325 16.8404 6.14999 16.6868 5.99646C16.5333 5.84293 16.3508 5.72145 16.1499 5.63908C15.949 5.55671 15.7338 5.51509 15.5167 5.51664C15.2989 5.51555 15.083 5.55736 14.8814 5.63969C14.6798 5.72202 14.4964 5.84325 14.3416 5.99647C14.029 6.3059 13.8522 6.72683 13.85 7.16664C13.8478 7.60646 14.0204 8.02914 14.3298 8.3417C14.6393 8.65426 15.0602 8.8311 15.5 8.83331ZM15.5 8.83331L15.5013 8.58331C15.501 8.58331 15.5008 8.58331 15.5006 8.58331M15.5 8.83331V8.58331C15.5002 8.58331 15.5004 8.58331 15.5006 8.58331M15.5006 8.58331C15.8761 8.58314 16.2362 8.4339 16.5017 8.16838C16.7674 7.9027 16.9167 7.54237 16.9167 7.16664V7.16486L16.9167 7.16486C16.918 6.98087 16.8827 6.79846 16.8129 6.62823C16.7431 6.458 16.6402 6.30333 16.5101 6.17324C16.38 6.04314 16.2253 5.94019 16.0551 5.87039C15.8848 5.80059 15.7024 5.76532 15.5184 5.76664L15.5154 5.76666C15.3305 5.76571 15.1471 5.80122 14.9759 5.87114C14.8047 5.94105 14.6489 6.04401 14.5175 6.17413C14.252 6.43692 14.1019 6.79439 14.1 7.1679C14.0981 7.54141 14.2447 7.90038 14.5075 8.16582C14.7701 8.43111 15.1273 8.58127 15.5006 8.58331ZM19.0833 17.4166H21.9167V18.5833H19.0833V17.4166Z" fill="black" fill-opacity="0.2"/>
<path d="M15.5 8.83331C15.942 8.83331 16.3659 8.65772 16.6785 8.34515C16.9911 8.03259 17.1667 7.60867 17.1667 7.16664C17.1682 6.94953 17.1266 6.73427 17.0442 6.53338C16.9619 6.3325 16.8404 6.14999 16.6868 5.99646C16.5333 5.84293 16.3508 5.72145 16.1499 5.63908C15.949 5.55671 15.7338 5.51509 15.5167 5.51664C15.2989 5.51555 15.083 5.55736 14.8814 5.63969C14.6798 5.72202 14.4964 5.84325 14.3416 5.99647C14.029 6.3059 13.8522 6.72683 13.85 7.16664C13.8478 7.60646 14.0204 8.02914 14.3298 8.3417C14.6393 8.65426 15.0602 8.8311 15.5 8.83331ZM15.5 8.83331L15.5013 8.58331C15.501 8.58331 15.5008 8.58331 15.5006 8.58331M15.5 8.83331V8.58331C15.5002 8.58331 15.5004 8.58331 15.5006 8.58331M15.5006 8.58331C15.8761 8.58314 16.2362 8.4339 16.5017 8.16838C16.7674 7.9027 16.9167 7.54237 16.9167 7.16664V7.16486L16.9167 7.16486C16.918 6.98087 16.8827 6.79846 16.8129 6.62823C16.7431 6.458 16.6402 6.30333 16.5101 6.17324C16.38 6.04314 16.2253 5.94019 16.0551 5.87039C15.8848 5.80059 15.7024 5.76532 15.5184 5.76664L15.5154 5.76666C15.3305 5.76571 15.1471 5.80122 14.9759 5.87114C14.8047 5.94105 14.6489 6.04401 14.5175 6.17413C14.252 6.43692 14.1019 6.79439 14.1 7.1679C14.0981 7.54141 14.2447 7.90038 14.5075 8.16582C14.7701 8.43111 15.1273 8.58127 15.5006 8.58331ZM19.0833 17.4166H21.9167V18.5833H19.0833V17.4166Z" stroke="#1F507A" stroke-width="0.5"/>
<path d="M15.5 8.83331C15.942 8.83331 16.3659 8.65772 16.6785 8.34515C16.9911 8.03259 17.1667 7.60867 17.1667 7.16664C17.1682 6.94953 17.1266 6.73427 17.0442 6.53338C16.9619 6.3325 16.8404 6.14999 16.6868 5.99646C16.5333 5.84293 16.3508 5.72145 16.1499 5.63908C15.949 5.55671 15.7338 5.51509 15.5167 5.51664C15.2989 5.51555 15.083 5.55736 14.8814 5.63969C14.6798 5.72202 14.4964 5.84325 14.3416 5.99647C14.029 6.3059 13.8522 6.72683 13.85 7.16664C13.8478 7.60646 14.0204 8.02914 14.3298 8.3417C14.6393 8.65426 15.0602 8.8311 15.5 8.83331ZM15.5 8.83331L15.5013 8.58331C15.501 8.58331 15.5008 8.58331 15.5006 8.58331M15.5 8.83331V8.58331C15.5002 8.58331 15.5004 8.58331 15.5006 8.58331M15.5006 8.58331C15.8761 8.58314 16.2362 8.4339 16.5017 8.16838C16.7674 7.9027 16.9167 7.54237 16.9167 7.16664V7.16486L16.9167 7.16486C16.918 6.98087 16.8827 6.79846 16.8129 6.62823C16.7431 6.458 16.6402 6.30333 16.5101 6.17324C16.38 6.04314 16.2253 5.94019 16.0551 5.87039C15.8848 5.80059 15.7024 5.76532 15.5184 5.76664L15.5154 5.76666C15.3305 5.76571 15.1471 5.80122 14.9759 5.87114C14.8047 5.94105 14.6489 6.04401 14.5175 6.17413C14.252 6.43692 14.1019 6.79439 14.1 7.1679C14.0981 7.54141 14.2447 7.90038 14.5075 8.16582C14.7701 8.43111 15.1273 8.58127 15.5006 8.58331ZM19.0833 17.4166H21.9167V18.5833H19.0833V17.4166Z" stroke="black" stroke-opacity="0.2" stroke-width="0.5"/>
</g>
<g id="Vector_3">
<path d="M26.9167 7.16667C26.9167 7.94907 26.2824 8.58333 25.5 8.58333C24.7176 8.58333 24.0834 7.94907 24.0834 7.16667C24.0834 6.38426 24.7176 5.75 25.5 5.75C26.2824 5.75 26.9167 6.38426 26.9167 7.16667Z" fill="#1F507A"/>
<path d="M26.9167 7.16667C26.9167 7.94907 26.2824 8.58333 25.5 8.58333C24.7176 8.58333 24.0834 7.94907 24.0834 7.16667C24.0834 6.38426 24.7176 5.75 25.5 5.75C26.2824 5.75 26.9167 6.38426 26.9167 7.16667Z" fill="black" fill-opacity="0.2"/>
<path d="M26.9167 7.16667C26.9167 7.94907 26.2824 8.58333 25.5 8.58333C24.7176 8.58333 24.0834 7.94907 24.0834 7.16667C24.0834 6.38426 24.7176 5.75 25.5 5.75C26.2824 5.75 26.9167 6.38426 26.9167 7.16667Z" stroke="#1F507A" stroke-width="0.5"/>
<path d="M26.9167 7.16667C26.9167 7.94907 26.2824 8.58333 25.5 8.58333C24.7176 8.58333 24.0834 7.94907 24.0834 7.16667C24.0834 6.38426 24.7176 5.75 25.5 5.75C26.2824 5.75 26.9167 6.38426 26.9167 7.16667Z" stroke="black" stroke-opacity="0.2" stroke-width="0.5"/>
</g>
<g id="Vector_4">
<path d="M27.1665 13.5833H13.8336C12.5742 13.5821 11.3667 13.0812 10.4761 12.1906C9.58553 11.3001 9.08466 10.0926 9.08337 8.8332V5.50013C9.08466 4.24072 9.58553 3.03325 10.4761 2.1427C11.3666 1.25216 12.5741 0.751289 13.8335 0.75H27.1666C28.426 0.751289 29.6335 1.25216 30.524 2.1427C31.4146 3.03328 31.9155 4.24079 31.9167 5.50025V8.83308C31.9155 10.0925 31.4146 11.3001 30.524 12.1906C29.6334 13.0812 28.4259 13.5821 27.1665 13.5833ZM13.8334 3.58333C13.325 3.58333 12.8375 3.78527 12.4781 4.14471C12.1186 4.50416 11.9167 4.99167 11.9167 5.5V8.83333C11.9167 9.34167 12.1186 9.82918 12.4781 10.1886C12.8375 10.5481 13.325 10.75 13.8334 10.75H27.1667C27.675 10.75 28.1626 10.5481 28.522 10.1886C28.8814 9.82918 29.0834 9.34166 29.0834 8.83333V5.5C29.0834 4.99167 28.8814 4.50416 28.522 4.14471C28.1626 3.78527 27.675 3.58333 27.1667 3.58333H13.8334Z" fill="#1F507A"/>
<path d="M27.1665 13.5833H13.8336C12.5742 13.5821 11.3667 13.0812 10.4761 12.1906C9.58553 11.3001 9.08466 10.0926 9.08337 8.8332V5.50013C9.08466 4.24072 9.58553 3.03325 10.4761 2.1427C11.3666 1.25216 12.5741 0.751289 13.8335 0.75H27.1666C28.426 0.751289 29.6335 1.25216 30.524 2.1427C31.4146 3.03328 31.9155 4.24079 31.9167 5.50025V8.83308C31.9155 10.0925 31.4146 11.3001 30.524 12.1906C29.6334 13.0812 28.4259 13.5821 27.1665 13.5833ZM13.8334 3.58333C13.325 3.58333 12.8375 3.78527 12.4781 4.14471C12.1186 4.50416 11.9167 4.99167 11.9167 5.5V8.83333C11.9167 9.34167 12.1186 9.82918 12.4781 10.1886C12.8375 10.5481 13.325 10.75 13.8334 10.75H27.1667C27.675 10.75 28.1626 10.5481 28.522 10.1886C28.8814 9.82918 29.0834 9.34166 29.0834 8.83333V5.5C29.0834 4.99167 28.8814 4.50416 28.522 4.14471C28.1626 3.78527 27.675 3.58333 27.1667 3.58333H13.8334Z" fill="black" fill-opacity="0.2"/>
<path d="M27.1665 13.5833H13.8336C12.5742 13.5821 11.3667 13.0812 10.4761 12.1906C9.58553 11.3001 9.08466 10.0926 9.08337 8.8332V5.50013C9.08466 4.24072 9.58553 3.03325 10.4761 2.1427C11.3666 1.25216 12.5741 0.751289 13.8335 0.75H27.1666C28.426 0.751289 29.6335 1.25216 30.524 2.1427C31.4146 3.03328 31.9155 4.24079 31.9167 5.50025V8.83308C31.9155 10.0925 31.4146 11.3001 30.524 12.1906C29.6334 13.0812 28.4259 13.5821 27.1665 13.5833ZM13.8334 3.58333C13.325 3.58333 12.8375 3.78527 12.4781 4.14471C12.1186 4.50416 11.9167 4.99167 11.9167 5.5V8.83333C11.9167 9.34167 12.1186 9.82918 12.4781 10.1886C12.8375 10.5481 13.325 10.75 13.8334 10.75H27.1667C27.675 10.75 28.1626 10.5481 28.522 10.1886C28.8814 9.82918 29.0834 9.34166 29.0834 8.83333V5.5C29.0834 4.99167 28.8814 4.50416 28.522 4.14471C28.1626 3.78527 27.675 3.58333 27.1667 3.58333H13.8334Z" stroke="#1F507A" stroke-width="0.5"/>
<path d="M27.1665 13.5833H13.8336C12.5742 13.5821 11.3667 13.0812 10.4761 12.1906C9.58553 11.3001 9.08466 10.0926 9.08337 8.8332V5.50013C9.08466 4.24072 9.58553 3.03325 10.4761 2.1427C11.3666 1.25216 12.5741 0.751289 13.8335 0.75H27.1666C28.426 0.751289 29.6335 1.25216 30.524 2.1427C31.4146 3.03328 31.9155 4.24079 31.9167 5.50025V8.83308C31.9155 10.0925 31.4146 11.3001 30.524 12.1906C29.6334 13.0812 28.4259 13.5821 27.1665 13.5833ZM13.8334 3.58333C13.325 3.58333 12.8375 3.78527 12.4781 4.14471C12.1186 4.50416 11.9167 4.99167 11.9167 5.5V8.83333C11.9167 9.34167 12.1186 9.82918 12.4781 10.1886C12.8375 10.5481 13.325 10.75 13.8334 10.75H27.1667C27.675 10.75 28.1626 10.5481 28.522 10.1886C28.8814 9.82918 29.0834 9.34166 29.0834 8.83333V5.5C29.0834 4.99167 28.8814 4.50416 28.522 4.14471C28.1626 3.78527 27.675 3.58333 27.1667 3.58333H13.8334Z" stroke="black" stroke-opacity="0.2" stroke-width="0.5"/>
</g>
</g>
<defs>
<clipPath id="clip0_990_838">
<rect width="40" height="40" fill="white" transform="translate(0.5 0.5)"/>
</clipPath>
</defs>
</svg>
