<svg width="24" height="24" viewBox="0 0 24 24" fill="none" xmlns="http://www.w3.org/2000/svg">
<path d="M4.00013 16.5C4.00013 17.2956 4.3162 18.0587 4.87881 18.6213C5.44142 19.1839 6.20448 19.5 7.00013 19.5C7.00013 20.163 7.26353 20.7989 7.73237 21.2678C8.20121 21.7366 8.83709 22 9.50013 22C10.1632 22 10.7991 21.7366 11.2679 21.2678C11.7367 20.7989 12.0001 20.163 12.0001 19.5C12.0001 20.163 12.2635 20.7989 12.7324 21.2678C13.2012 21.7366 13.8371 22 14.5001 22C15.1632 22 15.7991 21.7366 16.2679 21.2678C16.7367 20.7989 17.0001 20.163 17.0001 19.5C17.532 19.5 18.0543 19.3587 18.5135 19.0904C18.9728 18.8222 19.3524 18.4367 19.6137 17.9734C19.8749 17.5101 20.0082 16.9857 20 16.4539C19.9919 15.9221 19.8425 15.402 19.5671 14.947C20.2516 14.8147 20.8687 14.4483 21.3124 13.9107C21.7561 13.373 21.9988 12.6976 21.9988 12.0005C21.9988 11.3034 21.7561 10.628 21.3124 10.0903C20.8687 9.55267 20.2516 9.18625 19.5671 9.054C19.8427 8.59894 19.9923 8.07877 20.0006 7.54684C20.0089 7.0149 19.8756 6.49032 19.6144 6.02687C19.3532 5.56343 18.9734 5.17778 18.514 4.90948C18.0546 4.64117 17.5321 4.49985 17.0001 4.5C17.0001 3.83696 16.7367 3.20107 16.2679 2.73223C15.7991 2.26339 15.1632 2 14.5001 2C13.8371 2 13.2012 2.26339 12.7324 2.73223C12.2635 3.20107 12.0001 3.83696 12.0001 4.5C12.0001 3.83696 11.7367 3.20107 11.2679 2.73223C10.7991 2.26339 10.1632 2 9.50013 2C8.83709 2 8.20121 2.26339 7.73237 2.73223C7.26353 3.20107 7.00013 3.83696 7.00013 4.5C6.46828 4.49996 5.94598 4.6413 5.48673 4.90956C5.02749 5.17781 4.64782 5.56334 4.38661 6.02663C4.12541 6.48992 3.99206 7.01432 4.00023 7.54611C4.00841 8.0779 4.15781 8.59796 4.43313 9.053C3.74867 9.18525 3.13161 9.55167 2.68788 10.0893C2.24416 10.627 2.00146 11.3024 2.00146 11.9995C2.00146 12.6966 2.24416 13.372 2.68788 13.9097C3.13161 14.4473 3.74867 14.8137 4.43313 14.946C4.14962 15.4147 3.99987 15.9522 4.00013 16.5Z" stroke="#FDFDFD" stroke-width="1.5" stroke-linecap="round" stroke-linejoin="round"/>
<path d="M7.5 14.5L9.342 8.974C9.38824 8.83609 9.47664 8.7162 9.59471 8.63126C9.71278 8.54632 9.85455 8.50062 10 8.50062C10.1455 8.50062 10.2872 8.54632 10.4053 8.63126C10.5234 8.7162 10.6118 8.83609 10.658 8.974L12.5 14.5M15.5 8.5V14.5M8.5 12.5H11.5" stroke="#FDFDFD" stroke-width="1.5" stroke-linecap="round" stroke-linejoin="round"/>
</svg>
