<svg width="24" height="24" viewBox="0 0 24 24" fill="none" xmlns="http://www.w3.org/2000/svg">
<path d="M9.42822 6.94936C9.42822 6.44078 9.57903 5.94362 9.86159 5.52075C10.1441 5.09788 10.5457 4.76829 11.0156 4.57367C11.4855 4.37904 12.0025 4.32812 12.5013 4.42734C13.0001 4.52656 13.4583 4.77146 13.8179 5.13108C14.1775 5.49071 14.4225 5.94889 14.5217 6.4477C14.6209 6.94651 14.57 7.46354 14.3753 7.9334C14.1807 8.40327 13.8511 8.80487 13.4283 9.08742C13.0054 9.36998 12.5082 9.52079 11.9997 9.52079V10.3779M11.9997 13.9128C11.886 13.9128 11.777 13.8676 11.6966 13.7873C11.6162 13.7069 11.5711 13.5979 11.5711 13.4842C11.5711 13.3706 11.6162 13.2615 11.6966 13.1812C11.777 13.1008 11.886 13.0556 11.9997 13.0556C12.1133 13.0556 12.2223 13.1008 12.3027 13.1812C12.3831 13.2615 12.4282 13.3706 12.4282 13.4842C12.4282 13.5979 12.3831 13.7069 12.3027 13.7873C12.2223 13.8676 12.1133 13.9128 11.9997 13.9128Z" stroke="#FDFDFD" stroke-width="1.71429" stroke-linecap="round" stroke-linejoin="round"/>
<path d="M21.4284 23.1426H5.14272C4.46073 23.1426 3.80668 22.8717 3.32444 22.3895C2.84221 21.9073 2.57129 21.2532 2.57129 20.5712C2.57129 19.8892 2.84221 19.2352 3.32444 18.7529C3.80668 18.2707 4.46073 17.9998 5.14272 17.9998H19.7141M19.7141 17.9998C20.1688 17.9998 20.6048 17.8192 20.9263 17.4977C21.2478 17.1762 21.4284 16.7402 21.4284 16.2855V2.57122C21.4284 2.11656 21.2478 1.68053 20.9263 1.35904C20.6048 1.03755 20.1688 0.856934 19.7141 0.856934H5.14272C4.47245 0.856695 3.82858 1.11818 3.34826 1.58568C2.86795 2.05319 2.58916 2.68976 2.57129 3.35979V20.5026M19.7141 17.9998V23.1426" stroke="#FDFDFD" stroke-width="1.71429" stroke-linecap="round" stroke-linejoin="round"/>
</svg>
