<svg width="32" height="33" viewBox="0 0 32 33" fill="none" xmlns="http://www.w3.org/2000/svg">
<rect y="0.5" width="32" height="32" rx="8" fill="#2C6DA4"/>
<path d="M16.5 11.25C16.5 11.0511 16.421 10.8603 16.2803 10.7197C16.1397 10.579 15.9489 10.5 15.75 10.5C15.5511 10.5 15.3603 10.579 15.2197 10.7197C15.079 10.8603 15 11.0511 15 11.25V15.5H10.75C10.5511 15.5 10.3603 15.579 10.2197 15.7197C10.079 15.8603 10 16.0511 10 16.25C10 16.4489 10.079 16.6397 10.2197 16.7803C10.3603 16.921 10.5511 17 10.75 17H15V21.25C15 21.4489 15.079 21.6397 15.2197 21.7803C15.3603 21.921 15.5511 22 15.75 22C15.9489 22 16.1397 21.921 16.2803 21.7803C16.421 21.6397 16.5 21.4489 16.5 21.25V17H20.75C20.9489 17 21.1397 16.921 21.2803 16.7803C21.421 16.6397 21.5 16.4489 21.5 16.25C21.5 16.0511 21.421 15.8603 21.2803 15.7197C21.1397 15.579 20.9489 15.5 20.75 15.5H16.5V11.25Z" fill="white"/>
</svg>
