<svg width="48" height="48" viewBox="0 0 48 48" fill="none" xmlns="http://www.w3.org/2000/svg">
<rect x="0.5" y="0.5" width="47" height="47" rx="7.5" fill="#FDFDFD"/>
<rect x="0.5" y="0.5" width="47" height="47" rx="7.5" stroke="#D32F2F"/>
<path d="M26.7404 21L26.3942 30M21.6058 30L21.2596 21M31.2276 17.7906C31.5696 17.8422 31.9104 17.8975 32.25 17.9563M31.2276 17.7906L30.1598 31.6726C30.0696 32.8448 29.0921 33.75 27.9164 33.75H20.0836C18.9079 33.75 17.9304 32.8448 17.8402 31.6726L16.7724 17.7906M31.2276 17.7906C30.0812 17.6174 28.9215 17.4849 27.75 17.3943M15.75 17.9563C16.0896 17.8975 16.4304 17.8422 16.7724 17.7906M16.7724 17.7906C17.9188 17.6174 19.0785 17.4849 20.25 17.3943M27.75 17.3943V16.4782C27.75 15.2988 26.8393 14.3142 25.6606 14.2765C25.1092 14.2589 24.5556 14.25 24 14.25C23.4444 14.25 22.8908 14.2589 22.3394 14.2765C21.1607 14.3142 20.25 15.2988 20.25 16.4782V17.3943M27.75 17.3943C26.5126 17.2987 25.262 17.25 24 17.25C22.738 17.25 21.4874 17.2987 20.25 17.3943" stroke="#D32F2F" stroke-width="1.5" stroke-linecap="round" stroke-linejoin="round"/>
</svg>
