<svg width="22" height="22" viewBox="0 0 22 22" fill="none" xmlns="http://www.w3.org/2000/svg">
<path d="M15.4867 3.86167L17.1742 2.17417C17.9064 1.44194 19.0936 1.44194 19.8258 2.17417C20.5581 2.90641 20.5581 4.09359 19.8258 4.82583L9.20718 15.4445C8.67851 15.9731 8.02644 16.3618 7.30989 16.5752L4.625 17.375L5.42478 14.6901C5.63823 13.9736 6.02685 13.3215 6.55552 12.7928L15.4867 3.86167ZM15.4867 3.86167L18.125 6.49999M16.625 13.375V18.125C16.625 19.3676 15.6176 20.375 14.375 20.375H3.875C2.63236 20.375 1.625 19.3676 1.625 18.125V7.62499C1.625 6.38235 2.63236 5.37499 3.875 5.37499H8.625" stroke="#28A745" stroke-width="1.5" stroke-linecap="round" stroke-linejoin="round"/>
</svg>
