<svg width="32" height="32" viewBox="0 0 32 32" fill="none" xmlns="http://www.w3.org/2000/svg">
<path d="M4.25017 13.6C8.4409 13.8933 12.4645 15.3697 15.8521 17.8603L16.0002 17.9691L16.1482 17.8603C19.5358 15.3697 23.5594 13.8933 27.7502 13.6V17.2802V17.5297L27.9997 17.5302C28.6418 17.5314 29.2572 17.7877 29.7104 18.2425C30.1637 18.6974 30.4178 19.3136 30.4168 19.9558V19.9562V21.2948V21.2952C30.4178 21.9373 30.1637 22.5536 29.7104 23.0085C29.2572 23.4633 28.6418 23.7195 27.9997 23.7208L27.7502 23.7213V23.9708V26.6818C24.2478 26.9483 20.8752 28.1291 17.9701 30.1082L17.9684 30.1094C17.2808 30.5861 16.6235 31.105 16.0002 31.6629C15.3769 31.105 14.7195 30.5861 14.0319 30.1094L14.0303 30.1082C11.1251 28.1291 7.75249 26.9483 4.25017 26.6818V24.2388V24.0909L4.12062 24.0198L4.25017 13.6ZM4.25017 13.6V17.2802V17.5297L4.00066 17.5302C3.35852 17.5314 2.74317 17.7877 2.28989 18.2425C1.83662 18.6974 1.58254 19.3136 1.5835 19.9558L1.5835 19.9562L1.5835 21.2948C1.5835 21.5904 1.71798 21.9079 1.95267 22.232C2.18562 22.5538 2.50156 22.8603 2.82613 23.1287C3.1495 23.396 3.47411 23.6195 3.71855 23.7764C3.84052 23.8547 3.94194 23.916 4.01248 23.9576C4.04773 23.9783 4.07523 23.9941 4.09369 24.0046L4.11441 24.0163L4.11937 24.0191L4.12044 24.0197L4.12056 24.0197L4.25017 13.6ZM30.6668 21.2948V19.9562C30.6679 19.2477 30.3876 18.5679 29.8875 18.0661C29.3875 17.5643 28.7086 17.2816 28.0002 17.2802L30.6668 21.2948ZM15.8524 28.7645L16.0002 28.8728L16.1479 28.7645C18.8825 26.7604 22.0397 25.4091 25.3774 24.8143L25.5835 24.7775V24.5682V16.3668V16.0614L25.2841 16.1218C22.6644 16.6499 20.1773 17.6981 17.9699 19.2043L17.9684 19.2054C17.2808 19.6821 16.6235 20.201 16.0002 20.7589C15.3769 20.201 14.7195 19.6821 14.0319 19.2054L14.0304 19.2043C11.8228 17.6985 9.33575 16.6508 6.7162 16.1231L6.41683 16.0628V16.3682V24.5682V24.7775L6.62297 24.8143C9.96068 25.4091 13.1178 26.7604 15.8524 28.7645ZM14.9168 10.9168H17.0835V11.7502H14.9168V10.9168ZM14.9168 5.5835H17.0835V6.41683H14.9168V5.5835Z" fill="#1F507A"/>
<path d="M4.25017 13.6C8.4409 13.8933 12.4645 15.3697 15.8521 17.8603L16.0002 17.9691L16.1482 17.8603C19.5358 15.3697 23.5594 13.8933 27.7502 13.6V17.2802V17.5297L27.9997 17.5302C28.6418 17.5314 29.2572 17.7877 29.7104 18.2425C30.1637 18.6974 30.4178 19.3136 30.4168 19.9558V19.9562V21.2948V21.2952C30.4178 21.9373 30.1637 22.5536 29.7104 23.0085C29.2572 23.4633 28.6418 23.7195 27.9997 23.7208L27.7502 23.7213V23.9708V26.6818C24.2478 26.9483 20.8752 28.1291 17.9701 30.1082L17.9684 30.1094C17.2808 30.5861 16.6235 31.105 16.0002 31.6629C15.3769 31.105 14.7195 30.5861 14.0319 30.1094L14.0303 30.1082C11.1251 28.1291 7.75249 26.9483 4.25017 26.6818V24.2388V24.0909L4.12062 24.0198L4.25017 13.6ZM4.25017 13.6V17.2802V17.5297L4.00066 17.5302C3.35852 17.5314 2.74317 17.7877 2.28989 18.2425C1.83662 18.6974 1.58254 19.3136 1.5835 19.9558L1.5835 19.9562L1.5835 21.2948C1.5835 21.5904 1.71798 21.9079 1.95267 22.232C2.18562 22.5538 2.50156 22.8603 2.82613 23.1287C3.1495 23.396 3.47411 23.6195 3.71855 23.7764C3.84052 23.8547 3.94194 23.916 4.01248 23.9576C4.04773 23.9783 4.07523 23.9941 4.09369 24.0046L4.11441 24.0163L4.11937 24.0191L4.12044 24.0197L4.12056 24.0197L4.25017 13.6ZM30.6668 21.2948V19.9562C30.6679 19.2477 30.3876 18.5679 29.8875 18.0661C29.3875 17.5643 28.7086 17.2816 28.0002 17.2802L30.6668 21.2948ZM15.8524 28.7645L16.0002 28.8728L16.1479 28.7645C18.8825 26.7604 22.0397 25.4091 25.3774 24.8143L25.5835 24.7775V24.5682V16.3668V16.0614L25.2841 16.1218C22.6644 16.6499 20.1773 17.6981 17.9699 19.2043L17.9684 19.2054C17.2808 19.6821 16.6235 20.201 16.0002 20.7589C15.3769 20.201 14.7195 19.6821 14.0319 19.2054L14.0304 19.2043C11.8228 17.6985 9.33575 16.6508 6.7162 16.1231L6.41683 16.0628V16.3682V24.5682V24.7775L6.62297 24.8143C9.96068 25.4091 13.1178 26.7604 15.8524 28.7645ZM14.9168 10.9168H17.0835V11.7502H14.9168V10.9168ZM14.9168 5.5835H17.0835V6.41683H14.9168V5.5835Z" fill="black" fill-opacity="0.2"/>
<path d="M4.25017 13.6C8.4409 13.8933 12.4645 15.3697 15.8521 17.8603L16.0002 17.9691L16.1482 17.8603C19.5358 15.3697 23.5594 13.8933 27.7502 13.6V17.2802V17.5297L27.9997 17.5302C28.6418 17.5314 29.2572 17.7877 29.7104 18.2425C30.1637 18.6974 30.4178 19.3136 30.4168 19.9558V19.9562V21.2948V21.2952C30.4178 21.9373 30.1637 22.5536 29.7104 23.0085C29.2572 23.4633 28.6418 23.7195 27.9997 23.7208L27.7502 23.7213V23.9708V26.6818C24.2478 26.9483 20.8752 28.1291 17.9701 30.1082L17.9684 30.1094C17.2808 30.5861 16.6235 31.105 16.0002 31.6629C15.3769 31.105 14.7195 30.5861 14.0319 30.1094L14.0303 30.1082C11.1251 28.1291 7.75249 26.9483 4.25017 26.6818V24.2388V24.0909L4.12062 24.0198L4.25017 13.6ZM4.25017 13.6V17.2802V17.5297L4.00066 17.5302C3.35852 17.5314 2.74317 17.7877 2.28989 18.2425C1.83662 18.6974 1.58254 19.3136 1.5835 19.9558L1.5835 19.9562L1.5835 21.2948C1.5835 21.5904 1.71798 21.9079 1.95267 22.232C2.18562 22.5538 2.50156 22.8603 2.82613 23.1287C3.1495 23.396 3.47411 23.6195 3.71855 23.7764C3.84052 23.8547 3.94194 23.916 4.01248 23.9576C4.04773 23.9783 4.07523 23.9941 4.09369 24.0046L4.11441 24.0163L4.11937 24.0191L4.12044 24.0197L4.12056 24.0197L4.25017 13.6ZM30.6668 21.2948V19.9562C30.6679 19.2477 30.3876 18.5679 29.8875 18.0661C29.3875 17.5643 28.7086 17.2816 28.0002 17.2802L30.6668 21.2948ZM15.8524 28.7645L16.0002 28.8728L16.1479 28.7645C18.8825 26.7604 22.0397 25.4091 25.3774 24.8143L25.5835 24.7775V24.5682V16.3668V16.0614L25.2841 16.1218C22.6644 16.6499 20.1773 17.6981 17.9699 19.2043L17.9684 19.2054C17.2808 19.6821 16.6235 20.201 16.0002 20.7589C15.3769 20.201 14.7195 19.6821 14.0319 19.2054L14.0304 19.2043C11.8228 17.6985 9.33575 16.6508 6.7162 16.1231L6.41683 16.0628V16.3682V24.5682V24.7775L6.62297 24.8143C9.96068 25.4091 13.1178 26.7604 15.8524 28.7645ZM14.9168 10.9168H17.0835V11.7502H14.9168V10.9168ZM14.9168 5.5835H17.0835V6.41683H14.9168V5.5835Z" stroke="#1F507A" stroke-width="0.5"/>
<path d="M4.25017 13.6C8.4409 13.8933 12.4645 15.3697 15.8521 17.8603L16.0002 17.9691L16.1482 17.8603C19.5358 15.3697 23.5594 13.8933 27.7502 13.6V17.2802V17.5297L27.9997 17.5302C28.6418 17.5314 29.2572 17.7877 29.7104 18.2425C30.1637 18.6974 30.4178 19.3136 30.4168 19.9558V19.9562V21.2948V21.2952C30.4178 21.9373 30.1637 22.5536 29.7104 23.0085C29.2572 23.4633 28.6418 23.7195 27.9997 23.7208L27.7502 23.7213V23.9708V26.6818C24.2478 26.9483 20.8752 28.1291 17.9701 30.1082L17.9684 30.1094C17.2808 30.5861 16.6235 31.105 16.0002 31.6629C15.3769 31.105 14.7195 30.5861 14.0319 30.1094L14.0303 30.1082C11.1251 28.1291 7.75249 26.9483 4.25017 26.6818V24.2388V24.0909L4.12062 24.0198L4.25017 13.6ZM4.25017 13.6V17.2802V17.5297L4.00066 17.5302C3.35852 17.5314 2.74317 17.7877 2.28989 18.2425C1.83662 18.6974 1.58254 19.3136 1.5835 19.9558L1.5835 19.9562L1.5835 21.2948C1.5835 21.5904 1.71798 21.9079 1.95267 22.232C2.18562 22.5538 2.50156 22.8603 2.82613 23.1287C3.1495 23.396 3.47411 23.6195 3.71855 23.7764C3.84052 23.8547 3.94194 23.916 4.01248 23.9576C4.04773 23.9783 4.07523 23.9941 4.09369 24.0046L4.11441 24.0163L4.11937 24.0191L4.12044 24.0197L4.12056 24.0197L4.25017 13.6ZM30.6668 21.2948V19.9562C30.6679 19.2477 30.3876 18.5679 29.8875 18.0661C29.3875 17.5643 28.7086 17.2816 28.0002 17.2802L30.6668 21.2948ZM15.8524 28.7645L16.0002 28.8728L16.1479 28.7645C18.8825 26.7604 22.0397 25.4091 25.3774 24.8143L25.5835 24.7775V24.5682V16.3668V16.0614L25.2841 16.1218C22.6644 16.6499 20.1773 17.6981 17.9699 19.2043L17.9684 19.2054C17.2808 19.6821 16.6235 20.201 16.0002 20.7589C15.3769 20.201 14.7195 19.6821 14.0319 19.2054L14.0304 19.2043C11.8228 17.6985 9.33575 16.6508 6.7162 16.1231L6.41683 16.0628V16.3682V24.5682V24.7775L6.62297 24.8143C9.96068 25.4091 13.1178 26.7604 15.8524 28.7645ZM14.9168 10.9168H17.0835V11.7502H14.9168V10.9168ZM14.9168 5.5835H17.0835V6.41683H14.9168V5.5835Z" stroke="black" stroke-opacity="0.2" stroke-width="0.5"/>
<path d="M12.0002 6.66655L12.0014 6.41655C12.0012 6.41655 12.001 6.41655 12.0008 6.41655C12.0006 6.41655 12.0004 6.41655 12.0002 6.41655V6.66655ZM14.9169 13.5832H17.0835V14.4166H14.9169V13.5832Z" fill="#1F507A"/>
<path d="M12.0002 6.66655L12.0014 6.41655C12.0012 6.41655 12.001 6.41655 12.0008 6.41655C12.0006 6.41655 12.0004 6.41655 12.0002 6.41655V6.66655ZM14.9169 13.5832H17.0835V14.4166H14.9169V13.5832Z" fill="black" fill-opacity="0.2"/>
<path d="M12.0002 6.66655L12.0014 6.41655C12.0012 6.41655 12.001 6.41655 12.0008 6.41655C12.0006 6.41655 12.0004 6.41655 12.0002 6.41655V6.66655ZM14.9169 13.5832H17.0835V14.4166H14.9169V13.5832Z" stroke="#1F507A" stroke-width="0.5"/>
<path d="M12.0002 6.66655L12.0014 6.41655C12.0012 6.41655 12.001 6.41655 12.0008 6.41655C12.0006 6.41655 12.0004 6.41655 12.0002 6.41655V6.66655ZM14.9169 13.5832H17.0835V14.4166H14.9169V13.5832Z" stroke="black" stroke-opacity="0.2" stroke-width="0.5"/>
<path d="M21.0832 5.33333C21.0832 5.93164 20.5981 6.41667 19.9998 6.41667C19.4015 6.41667 18.9165 5.93164 18.9165 5.33333C18.9165 4.73502 19.4015 4.25 19.9998 4.25C20.5981 4.25 21.0832 4.73502 21.0832 5.33333Z" fill="#1F507A"/>
<path d="M21.0832 5.33333C21.0832 5.93164 20.5981 6.41667 19.9998 6.41667C19.4015 6.41667 18.9165 5.93164 18.9165 5.33333C18.9165 4.73502 19.4015 4.25 19.9998 4.25C20.5981 4.25 21.0832 4.73502 21.0832 5.33333Z" fill="black" fill-opacity="0.2"/>
<path d="M21.0832 5.33333C21.0832 5.93164 20.5981 6.41667 19.9998 6.41667C19.4015 6.41667 18.9165 5.93164 18.9165 5.33333C18.9165 4.73502 19.4015 4.25 19.9998 4.25C20.5981 4.25 21.0832 4.73502 21.0832 5.33333Z" stroke="#1F507A" stroke-width="0.5"/>
<path d="M21.0832 5.33333C21.0832 5.93164 20.5981 6.41667 19.9998 6.41667C19.4015 6.41667 18.9165 5.93164 18.9165 5.33333C18.9165 4.73502 19.4015 4.25 19.9998 4.25C20.5981 4.25 21.0832 4.73502 21.0832 5.33333Z" stroke="black" stroke-opacity="0.2" stroke-width="0.5"/>
<path d="M21.3329 10.4167H10.6668C9.67243 10.4157 8.71912 10.0202 8.01602 9.31715C7.31296 8.61408 6.91753 7.66082 6.9165 6.66653V4.00013C6.91753 3.00585 7.31296 2.05258 8.01602 1.34952C8.71909 0.646454 9.67235 0.251024 10.6666 0.25H21.333C22.3273 0.251024 23.2806 0.646454 23.9837 1.34952C24.6867 2.05261 25.0822 3.00593 25.0832 4.00025V6.66642C25.0822 7.66074 24.6867 8.61405 23.9837 9.31715C23.2806 10.0202 22.3272 10.4157 21.3329 10.4167ZM10.6665 2.41667C10.2466 2.41667 9.84385 2.58348 9.54692 2.88041C9.24999 3.17735 9.08317 3.58007 9.08317 4V6.66667C9.08317 7.08659 9.24999 7.48932 9.54692 7.78625C9.84385 8.08318 10.2466 8.25 10.6665 8.25H21.3332C21.7531 8.25 22.1558 8.08318 22.4528 7.78625C22.7497 7.48932 22.9165 7.08659 22.9165 6.66667V4C22.9165 3.58007 22.7497 3.17735 22.4528 2.88041C22.1558 2.58348 21.7531 2.41667 21.3332 2.41667H10.6665Z" fill="#1F507A"/>
<path d="M21.3329 10.4167H10.6668C9.67243 10.4157 8.71912 10.0202 8.01602 9.31715C7.31296 8.61408 6.91753 7.66082 6.9165 6.66653V4.00013C6.91753 3.00585 7.31296 2.05258 8.01602 1.34952C8.71909 0.646454 9.67235 0.251024 10.6666 0.25H21.333C22.3273 0.251024 23.2806 0.646454 23.9837 1.34952C24.6867 2.05261 25.0822 3.00593 25.0832 4.00025V6.66642C25.0822 7.66074 24.6867 8.61405 23.9837 9.31715C23.2806 10.0202 22.3272 10.4157 21.3329 10.4167ZM10.6665 2.41667C10.2466 2.41667 9.84385 2.58348 9.54692 2.88041C9.24999 3.17735 9.08317 3.58007 9.08317 4V6.66667C9.08317 7.08659 9.24999 7.48932 9.54692 7.78625C9.84385 8.08318 10.2466 8.25 10.6665 8.25H21.3332C21.7531 8.25 22.1558 8.08318 22.4528 7.78625C22.7497 7.48932 22.9165 7.08659 22.9165 6.66667V4C22.9165 3.58007 22.7497 3.17735 22.4528 2.88041C22.1558 2.58348 21.7531 2.41667 21.3332 2.41667H10.6665Z" fill="black" fill-opacity="0.2"/>
<path d="M21.3329 10.4167H10.6668C9.67243 10.4157 8.71912 10.0202 8.01602 9.31715C7.31296 8.61408 6.91753 7.66082 6.9165 6.66653V4.00013C6.91753 3.00585 7.31296 2.05258 8.01602 1.34952C8.71909 0.646454 9.67235 0.251024 10.6666 0.25H21.333C22.3273 0.251024 23.2806 0.646454 23.9837 1.34952C24.6867 2.05261 25.0822 3.00593 25.0832 4.00025V6.66642C25.0822 7.66074 24.6867 8.61405 23.9837 9.31715C23.2806 10.0202 22.3272 10.4157 21.3329 10.4167ZM10.6665 2.41667C10.2466 2.41667 9.84385 2.58348 9.54692 2.88041C9.24999 3.17735 9.08317 3.58007 9.08317 4V6.66667C9.08317 7.08659 9.24999 7.48932 9.54692 7.78625C9.84385 8.08318 10.2466 8.25 10.6665 8.25H21.3332C21.7531 8.25 22.1558 8.08318 22.4528 7.78625C22.7497 7.48932 22.9165 7.08659 22.9165 6.66667V4C22.9165 3.58007 22.7497 3.17735 22.4528 2.88041C22.1558 2.58348 21.7531 2.41667 21.3332 2.41667H10.6665Z" stroke="#1F507A" stroke-width="0.5"/>
<path d="M21.3329 10.4167H10.6668C9.67243 10.4157 8.71912 10.0202 8.01602 9.31715C7.31296 8.61408 6.91753 7.66082 6.9165 6.66653V4.00013C6.91753 3.00585 7.31296 2.05258 8.01602 1.34952C8.71909 0.646454 9.67235 0.251024 10.6666 0.25H21.333C22.3273 0.251024 23.2806 0.646454 23.9837 1.34952C24.6867 2.05261 25.0822 3.00593 25.0832 4.00025V6.66642C25.0822 7.66074 24.6867 8.61405 23.9837 9.31715C23.2806 10.0202 22.3272 10.4157 21.3329 10.4167ZM10.6665 2.41667C10.2466 2.41667 9.84385 2.58348 9.54692 2.88041C9.24999 3.17735 9.08317 3.58007 9.08317 4V6.66667C9.08317 7.08659 9.24999 7.48932 9.54692 7.78625C9.84385 8.08318 10.2466 8.25 10.6665 8.25H21.3332C21.7531 8.25 22.1558 8.08318 22.4528 7.78625C22.7497 7.48932 22.9165 7.08659 22.9165 6.66667V4C22.9165 3.58007 22.7497 3.17735 22.4528 2.88041C22.1558 2.58348 21.7531 2.41667 21.3332 2.41667H10.6665Z" stroke="black" stroke-opacity="0.2" stroke-width="0.5"/>
</svg>
