<svg width="22" height="22" viewBox="0 0 22 22" fill="none" xmlns="http://www.w3.org/2000/svg">
<path d="M3.00013 15.5C3.00013 16.2956 3.3162 17.0587 3.87881 17.6213C4.44142 18.1839 5.20448 18.5 6.00013 18.5C6.00013 19.163 6.26353 19.7989 6.73237 20.2678C7.20121 20.7366 7.83709 21 8.50013 21C9.16317 21 9.79906 20.7366 10.2679 20.2678C10.7367 19.7989 11.0001 19.163 11.0001 18.5C11.0001 19.163 11.2635 19.7989 11.7324 20.2678C12.2012 20.7366 12.8371 21 13.5001 21C14.1632 21 14.7991 20.7366 15.2679 20.2678C15.7367 19.7989 16.0001 19.163 16.0001 18.5C16.532 18.5 17.0543 18.3587 17.5135 18.0904C17.9728 17.8222 18.3524 17.4367 18.6137 16.9734C18.8749 16.5101 19.0082 15.9857 19 15.4539C18.9919 14.9221 18.8425 14.402 18.5671 13.947C19.2516 13.8147 19.8687 13.4483 20.3124 12.9107C20.7561 12.373 20.9988 11.6976 20.9988 11.0005C20.9988 10.3034 20.7561 9.62801 20.3124 9.09034C19.8687 8.55267 19.2516 8.18625 18.5671 8.054C18.8427 7.59894 18.9923 7.07877 19.0006 6.54684C19.0089 6.0149 18.8756 5.49032 18.6144 5.02687C18.3532 4.56343 17.9734 4.17778 17.514 3.90948C17.0546 3.64117 16.5321 3.49985 16.0001 3.5C16.0001 2.83696 15.7367 2.20107 15.2679 1.73223C14.7991 1.26339 14.1632 1 13.5001 1C12.8371 1 12.2012 1.26339 11.7324 1.73223C11.2635 2.20107 11.0001 2.83696 11.0001 3.5C11.0001 2.83696 10.7367 2.20107 10.2679 1.73223C9.79906 1.26339 9.16317 1 8.50013 1C7.83709 1 7.20121 1.26339 6.73237 1.73223C6.26353 2.20107 6.00013 2.83696 6.00013 3.5C5.46828 3.49996 4.94598 3.6413 4.48673 3.90956C4.02749 4.17781 3.64782 4.56334 3.38661 5.02663C3.12541 5.48992 2.99206 6.01432 3.00023 6.54611C3.00841 7.0779 3.15781 7.59796 3.43313 8.053C2.74867 8.18525 2.13161 8.55167 1.68788 9.08934C1.24416 9.62701 1.00146 10.3024 1.00146 10.9995C1.00146 11.6966 1.24416 12.372 1.68788 12.9097C2.13161 13.4473 2.74867 13.8137 3.43313 13.946C3.14962 14.4147 2.99987 14.9522 3.00013 15.5Z" stroke="#2C6DA4" stroke-width="1.5" stroke-linecap="round" stroke-linejoin="round"/>
<path d="M6.5 13.5L8.342 7.974C8.38824 7.83609 8.47664 7.7162 8.59471 7.63126C8.71278 7.54632 8.85455 7.50062 9 7.50062C9.14545 7.50062 9.28722 7.54632 9.40529 7.63126C9.52336 7.7162 9.61176 7.83609 9.658 7.974L11.5 13.5M14.5 7.5V13.5M7.5 11.5H10.5" stroke="#2C6DA4" stroke-width="1.5" stroke-linecap="round" stroke-linejoin="round"/>
</svg>
