<svg width="16" height="17" viewBox="0 0 16 17" fill="none" xmlns="http://www.w3.org/2000/svg">
<g clip-path="url(#clip0_1447_6721)">
<path d="M11.3335 2.17334V3.50667M8.00016 2.17334V3.50667M4.66683 2.17334V3.50667M5.3335 10.84H8.00016M5.3335 7.50667H10.6668M2.3335 7.50667C2.3335 5.30667 2.3335 4.20667 3.01683 3.52334C3.70016 2.84001 4.80016 2.84001 7.00016 2.84001H9.00016C11.2002 2.84001 12.3002 2.84001 12.9835 3.52334C13.6668 4.20667 13.6668 5.30667 13.6668 7.50667V10.84C13.6668 13.04 13.6668 14.14 12.9835 14.8233C12.3002 15.5067 11.2002 15.5067 9.00016 15.5067H7.00016C4.80016 15.5067 3.70016 15.5067 3.01683 14.8233C2.3335 14.14 2.3335 13.04 2.3335 10.84V7.50667Z" stroke="#2C6DA4" stroke-width="1.5" stroke-linecap="round" stroke-linejoin="round"/>
</g>
<defs>
<clipPath id="clip0_1447_6721">
<rect width="16" height="16" fill="white" transform="translate(0 0.839844)"/>
</clipPath>
</defs>
</svg>
