<svg width="40" height="40" viewBox="0 0 40 40" fill="none" xmlns="http://www.w3.org/2000/svg">
<path d="M11.7646 0.5H28.2354C34.4566 0.500031 39.5 5.54337 39.5 11.7646V28.2354C39.5 34.4566 34.4566 39.5 28.2354 39.5H11.7646C5.54337 39.5 0.500031 34.4566 0.5 28.2354V11.7646C0.500031 5.54337 5.54337 0.500031 11.7646 0.5Z" stroke="#1F507A"/>
<path d="M11.7646 0.5H28.2354C34.4566 0.500031 39.5 5.54337 39.5 11.7646V28.2354C39.5 34.4566 34.4566 39.5 28.2354 39.5H11.7646C5.54337 39.5 0.500031 34.4566 0.5 28.2354V11.7646C0.500031 5.54337 5.54337 0.500031 11.7646 0.5Z" stroke="black" stroke-opacity="0.2"/>
<g clip-path="url(#clip0_2654_5988)">
<path d="M12.6347 20.0805C12.6347 19.6891 12.8032 19.2978 13.1395 18.9994L23.7288 9.60914C24.4024 9.0118 25.4945 9.0118 26.1679 9.60914C26.8412 10.2062 26.8412 11.1745 26.1679 11.7719L16.7979 20.0805L26.1675 28.3892C26.8409 28.9865 26.8409 29.9547 26.1675 30.5517C25.4942 31.1494 24.4021 31.1494 23.7284 30.5517L13.1392 21.1617C12.8028 20.8631 12.6347 20.4718 12.6347 20.0805V20.0805Z" fill="#1F507A"/>
<path d="M12.6347 20.0805C12.6347 19.6891 12.8032 19.2978 13.1395 18.9994L23.7288 9.60914C24.4024 9.0118 25.4945 9.0118 26.1679 9.60914C26.8412 10.2062 26.8412 11.1745 26.1679 11.7719L16.7979 20.0805L26.1675 28.3892C26.8409 28.9865 26.8409 29.9547 26.1675 30.5517C25.4942 31.1494 24.4021 31.1494 23.7284 30.5517L13.1392 21.1617C12.8028 20.8631 12.6347 20.4718 12.6347 20.0805V20.0805Z" fill="black" fill-opacity="0.2"/>
</g>
<defs>
<clipPath id="clip0_2654_5988">
<rect width="21.8388" height="13.6729" fill="white" transform="matrix(0 1 -1 0 26.6729 9.16113)"/>
</clipPath>
</defs>
</svg>
